<svg xmlns="http://www.w3.org/2000/svg" xmlns:xlink="http://www.w3.org/1999/xlink" viewBox="0 0 929.06 857.39"><defs><style>.cls-1,.cls-2,.cls-3,.cls-4{opacity:0.5;}.cls-1{fill:url(#linear-gradient);}.cls-2{fill:url(#linear-gradient-2);}.cls-3{fill:url(#linear-gradient-3);}.cls-4{fill:url(#linear-gradient-4);}</style><linearGradient id="linear-gradient" x1="1123.11" y1="765.09" x2="1182.6" y2="765.09" gradientUnits="userSpaceOnUse"><stop offset="0" stop-color="#782ebc"/><stop offset="0.67" stop-color="#3d86eb"/><stop offset="1" stop-color="#23acff"/></linearGradient><linearGradient id="linear-gradient-2" x1="4901.85" y1="1088.15" x2="5076.75" y2="1088.15" gradientTransform="matrix(-1, -0.06, -0.07, 1.23, 6105.23, -155.14)" xlink:href="#linear-gradient"/><linearGradient id="linear-gradient-3" x1="5647.02" y1="455.89" x2="5821.93" y2="455.89" gradientTransform="matrix(-1.01, -0.06, 0.07, -1.29, 6086.18, 1086.26)" xlink:href="#linear-gradient"/><linearGradient id="linear-gradient-4" x1="7368.4" y1="2877.73" x2="7493.71" y2="2877.73" gradientTransform="matrix(-0.14, -0.43, -1.18, 0.38, 5137.84, 2342.39)" xlink:href="#linear-gradient"/></defs><title>baack_back</title><g id="BACKGROUND"><g id="DESIGNED_BY_FREEPIK" data-name="DESIGNED BY FREEPIK"><path class="cls-1" d="M1143.56,756.18c-10.79-14.46-34.67,7-8.92,18.25,14.39,6.29,33,5.72,43.25-.75,8.7-5.5,4.64-18.77-6.5-7C1162.39,776.18,1155.14,771.68,1143.56,756.18Z" transform="translate(-253.54 -106.56)"/><path class="cls-2" d="M1036.22,846.56c59.2,14.64,151.33,59.74,62.31,101.46-49.76,23.32-100.41,22.43-123.7-12C954.41,905.81,946.67,824.4,1036.22,846.56Z" transform="translate(-253.54 -106.56)"/><path class="cls-3" d="M323.73,230c61-8.44,158.62-44.87,74.2-98.73-47.18-30.11-98.07-35-125.4-1.78C248.56,158.67,231.39,242.79,323.73,230Z" transform="translate(-253.54 -106.56)"/><path class="cls-4" d="M763.05,186.65c-1.76,21.07-19.57,59.1-60,42.42-22.6-9.33-29-24.61-8.9-39.65C711.76,176.23,765.72,154.77,763.05,186.65Z" transform="translate(-253.54 -106.56)"/></g></g></svg>