<svg xmlns="http://www.w3.org/2000/svg" xmlns:xlink="http://www.w3.org/1999/xlink" viewBox="0 0 1892.53 1078.54"><defs><style>.cls-1{fill:url(#linear-gradient);}.cls-2{fill:url(#linear-gradient-2);}.cls-10,.cls-11,.cls-12,.cls-13,.cls-14,.cls-3,.cls-4,.cls-5,.cls-6,.cls-7,.cls-8,.cls-9{opacity:0.5;}.cls-3{fill:url(#linear-gradient-3);}.cls-4{fill:url(#linear-gradient-4);}.cls-5{fill:url(#linear-gradient-5);}.cls-6{fill:url(#linear-gradient-6);}.cls-7{fill:url(#linear-gradient-7);}.cls-8{fill:url(#linear-gradient-8);}.cls-9{fill:url(#linear-gradient-9);}.cls-10{fill:url(#linear-gradient-10);}.cls-11{fill:url(#linear-gradient-11);}.cls-12{fill:url(#linear-gradient-12);}.cls-13{fill:url(#linear-gradient-13);}.cls-14{fill:url(#linear-gradient-14);}</style><linearGradient id="linear-gradient" x1="1717.94" y1="-121.85" x2="2226.81" y2="-121.85" gradientTransform="matrix(0.8, -0.45, 0.41, 0.73, -21.11, 1811.38)" gradientUnits="userSpaceOnUse"><stop offset="0" stop-color="#4f1e7c"/><stop offset="0.27" stop-color="#402781"/><stop offset="1" stop-color="#1a3e8f"/></linearGradient><linearGradient id="linear-gradient-2" x1="5217.96" y1="2124.06" x2="5679.55" y2="2124.06" gradientTransform="matrix(-0.89, -0.24, 0.22, -0.81, 5392.22, 3478.77)" xlink:href="#linear-gradient"/><linearGradient id="linear-gradient-3" x1="1123.11" y1="765.09" x2="1182.6" y2="765.09" gradientUnits="userSpaceOnUse"><stop offset="0" stop-color="#782ebc"/><stop offset="0.67" stop-color="#3d86eb"/><stop offset="1" stop-color="#23acff"/></linearGradient><linearGradient id="linear-gradient-4" x1="-579.23" y1="421.93" x2="-548.51" y2="421.93" gradientTransform="matrix(0.22, 0.4, 1.08, -0.6, 776.08, 985.54)" xlink:href="#linear-gradient-3"/><linearGradient id="linear-gradient-5" x1="5647.02" y1="455.89" x2="5821.93" y2="455.89" gradientTransform="matrix(-1.01, -0.06, 0.07, -1.29, 6086.18, 1086.26)" xlink:href="#linear-gradient-3"/><linearGradient id="linear-gradient-6" x1="7368.4" y1="2877.73" x2="7493.71" y2="2877.73" gradientTransform="matrix(-0.14, -0.43, -1.18, 0.38, 5137.84, 2342.39)" xlink:href="#linear-gradient-3"/><linearGradient id="linear-gradient-7" x1="1082.36" y1="499.55" x2="1086.89" y2="499.55" xlink:href="#linear-gradient-3"/><linearGradient id="linear-gradient-8" x1="1827.61" y1="1521.71" x2="1950.7" y2="1521.71" gradientTransform="matrix(1.1, 0.32, 1.15, -3.93, -2339.59, 5959.03)" xlink:href="#linear-gradient-3"/><linearGradient id="linear-gradient-9" x1="1611.74" y1="341.74" x2="1626.97" y2="341.74" xlink:href="#linear-gradient-3"/><linearGradient id="linear-gradient-10" x1="1241.43" y1="781.44" x2="1256.66" y2="781.44" xlink:href="#linear-gradient-3"/><linearGradient id="linear-gradient-11" x1="3251.89" y1="-647.64" x2="3267.12" y2="-647.64" gradientTransform="matrix(0.2, -0.98, 0.98, 0.2, 777.82, 4148.34)" xlink:href="#linear-gradient-3"/><linearGradient id="linear-gradient-12" x1="1479.26" y1="661.99" x2="1494.49" y2="661.99" xlink:href="#linear-gradient-3"/><linearGradient id="linear-gradient-13" x1="813.63" y1="461.78" x2="818.16" y2="461.78" xlink:href="#linear-gradient-3"/><linearGradient id="linear-gradient-14" x1="1049.03" y1="681.3" x2="1053.56" y2="681.3" xlink:href="#linear-gradient-3"/></defs><title>back_back</title><g id="BACKGROUND"><g id="DESIGNED_BY_FREEPIK" data-name="DESIGNED BY FREEPIK"><path class="cls-1" d="M1620.6,600.65c-46.63-31.24-107.91-8.77-130.16,47.21C1464.83,712.28,1435,685.2,1348,764.38c-76.53,69.62-78.45,172.75-9.23,237.16,68.34,63.58,194.57,96.89,315.36-27.95C1761.64,862.43,1706.15,658,1620.6,600.65Z"/><path class="cls-2" d="M792.8,576.46c11.74,54.89,71.39,81.4,126.33,56.69,63.21-28.44,16.29,29,133.9,32.76,103.41,3.27,145.46-31.4,174.21-121.48,25.2-79,14.18-263.3-137.81-270C934.91,267.58,771.27,475.76,792.8,576.46Z"/><path class="cls-3" d="M1143.56,756.18c-10.79-14.46-34.67,7-8.92,18.25,14.39,6.29,33,5.72,43.25-.75,8.7-5.5,4.64-18.77-6.5-7C1162.39,776.18,1155.14,771.68,1143.56,756.18Z"/><path class="cls-4" d="M1097.22,513.52c-.6-5.15,1.82-15.16,12.35-13.12,5.88,1.13,8.16,4.5,4.07,9.09C1110.05,513.51,1098.14,521.3,1097.22,513.52Z"/><path class="cls-5" d="M323.73,230c61-8.44,158.62-44.87,74.2-98.73-47.18-30.11-98.07-35-125.4-1.78C248.56,158.67,231.39,242.79,323.73,230Z"/><path class="cls-6" d="M763.05,186.65c-1.76,21.07-19.57,59.1-60,42.42-22.6-9.33-29-24.61-8.9-39.65C711.76,176.23,765.72,154.77,763.05,186.65Z"/><path class="cls-7" d="M1086.89,499.55a2.27,2.27,0,1,1-2.27-2.26A2.27,2.27,0,0,1,1086.89,499.55Z"/><path class="cls-8" d="M1399.78,665.39c-28.64-28.69,68.08-58.19,89.63-150.44,12-51.31,94.1-47.19,76.63,51.44C1557,617.17,1443.11,708.79,1399.78,665.39Z"/><path class="cls-9" d="M1627,341.74a7.62,7.62,0,1,1-7.62-7.62A7.62,7.62,0,0,1,1627,341.74Z"/><path class="cls-10" d="M1256.66,781.44a7.62,7.62,0,1,1-7.62-7.62A7.62,7.62,0,0,1,1256.66,781.44Z"/><path class="cls-11" d="M813,817.85a7.61,7.61,0,1,1-9,5.89A7.6,7.6,0,0,1,813,817.85Z"/><path class="cls-12" d="M1494.49,662a7.62,7.62,0,1,1-7.62-7.62A7.62,7.62,0,0,1,1494.49,662Z"/><path class="cls-13" d="M818.16,461.78a2.27,2.27,0,1,1-2.26-2.27A2.26,2.26,0,0,1,818.16,461.78Z"/><path class="cls-14" d="M1053.56,681.3a2.27,2.27,0,1,1-2.27-2.27A2.26,2.26,0,0,1,1053.56,681.3Z"/></g></g></svg>