<svg xmlns="http://www.w3.org/2000/svg" xmlns:xlink="http://www.w3.org/1999/xlink" viewBox="0 0 1892.53 1078.54"><defs><style>.cls-1{fill:url(#linear-gradient);}.cls-2{fill:url(#linear-gradient-2);}.cls-3{opacity:0.5;fill:url(#linear-gradient-3);}</style><linearGradient id="linear-gradient" x1="924.65" y1="477.19" x2="1719.6" y2="477.19" gradientTransform="matrix(1, 0, 0, -0.89, 0, 797.43)" gradientUnits="userSpaceOnUse"><stop offset="0" stop-color="#782ebc"/><stop offset="0.67" stop-color="#3d86eb"/><stop offset="1" stop-color="#23acff"/></linearGradient><linearGradient id="linear-gradient-2" x1="179.86" y1="2105.66" x2="687.59" y2="2105.66" gradientTransform="matrix(0.95, 0.3, -0.24, 0.78, 580.41, -960.73)" gradientUnits="userSpaceOnUse"><stop offset="0" stop-color="#4f1ea2"/><stop offset="0.52" stop-color="#324bb2"/><stop offset="1" stop-color="#1a71bf"/></linearGradient><linearGradient id="linear-gradient-3" x1="4901.85" y1="1088.15" x2="5076.75" y2="1088.15" gradientTransform="matrix(-1, -0.06, -0.07, 1.23, 6105.23, -155.14)" xlink:href="#linear-gradient"/></defs><title>back_front</title><g id="BACKGROUND"><g id="DESIGNED_BY_FREEPIK" data-name="DESIGNED BY FREEPIK"><path class="cls-1" d="M1690.53,620.11c-44.18,77.25-162.1,77-168-6.8-7.11-101.54-177-68.63-317.07-80.51C1026.38,517.63,910.77,399.46,926,291.28c20-142.16,212.57-277.17,500.59-199.61C1683,160.73,1771.58,478.38,1690.53,620.11Z"/><path class="cls-2" d="M745.79,749.94c-14.2-47.63-52.32-13.29-268.89-98.56C318,588.8,226.26,693.2,234.33,773.42c8,79.18,83.42,181,268.72,195.77C668,982.3,771.85,837.31,745.79,749.94Z"/><path class="cls-3" d="M1036.22,846.56c59.2,14.64,151.33,59.74,62.31,101.46-49.76,23.32-100.41,22.43-123.7-12C954.41,905.81,946.67,824.4,1036.22,846.56Z"/></g></g></svg>