<svg id="Capa_1" data-name="Capa 1" xmlns="http://www.w3.org/2000/svg" xmlns:xlink="http://www.w3.org/1999/xlink" viewBox="0 0 5869.44 6280.54"><defs><style>.cls-1{fill:#8e78c5;}.cls-1,.cls-2,.cls-3,.cls-4{stroke:#1d1d1b;stroke-miterlimit:10;}.cls-2{fill:#91b9c5;}.cls-3{fill:#a6e5ba;}.cls-4{fill:#5f0c69;}.cls-5{fill:url(#Degradado_sin_nombre_17);}.cls-6{fill:url(#Degradado_sin_nombre_17-2);}.cls-7{fill:url(#Degradado_sin_nombre_17-3);}.cls-8{fill:url(#Degradado_sin_nombre_17-4);}.cls-9{fill:url(#Degradado_sin_nombre_17-5);}</style><linearGradient id="Degradado_sin_nombre_17" x1="1463.85" y1="2653.06" x2="1481.98" y2="496.39" gradientUnits="userSpaceOnUse"><stop offset="0" stop-color="#79f"/><stop offset="1" stop-color="#ddbdff"/></linearGradient><linearGradient id="Degradado_sin_nombre_17-2" x1="1462.79" y1="2647.12" x2="1480.91" y2="490.59" xlink:href="#Degradado_sin_nombre_17"/><linearGradient id="Degradado_sin_nombre_17-3" x1="1460.56" y1="2660.01" x2="1478.91" y2="476.57" xlink:href="#Degradado_sin_nombre_17"/><linearGradient id="Degradado_sin_nombre_17-4" x1="1464.91" y1="2658.86" x2="1483.04" y2="502.32" xlink:href="#Degradado_sin_nombre_17"/><linearGradient id="Degradado_sin_nombre_17-5" x1="1466.9" y1="2674.43" x2="1485.25" y2="490.99" xlink:href="#Degradado_sin_nombre_17"/></defs><title>myment-logo_center</title><rect class="cls-1" x="0.5" y="0.5" width="2834.65" height="1569.88"/><rect class="cls-2" x="0.5" y="1570.38" width="2834.65" height="1569.88"/><rect class="cls-3" x="0.5" y="3140.27" width="2834.65" height="1569.88"/><rect class="cls-4" x="0.5" y="4710.15" width="2834.65" height="1569.88"/><path class="cls-5" d="M2204,1632.26l-2.57-15.71-.17-.5c-.55-1.65-1.17-3.27-1.83-4.83l-.24-.57-14.41-21.36-.43-.43a72.32,72.32,0,0,0-6.28-5.58c-.81-.62-1.74-1.33-2.74-2a69.46,69.46,0,0,0-10.22-6c-.94-.46-2-.92-3.11-1.41a69.77,69.77,0,0,0-27.38-5.53H756.46a70.25,70.25,0,0,0-70.05,64H564.28a927.26,927.26,0,0,1,0-239.27h274a70.25,70.25,0,0,0,70.05,64H2190.4a70.25,70.25,0,0,0,70.06-64h122.13a927.26,927.26,0,0,1,0,239.27Z" transform="translate(3479.1 2663.98)"/><path class="cls-6" d="M2259.59,1380.31l-4.14-20.47-.25-.59c-.33-.77-.83-1.93-1.41-3.12l-1.46-2.87c-.62-1.14-1.18-2.09-1.75-3s-1.22-2-1.87-2.91c-.48-.72-1-1.45-1.54-2.17l-2.86-3.65c-.67-.81-1.24-1.45-1.82-2.1-.82-.9-1.59-1.7-2.35-2.47a72.1,72.1,0,0,0-6.29-5.58c-.81-.63-1.75-1.35-2.75-2a69.62,69.62,0,0,0-10.22-6c-1-.46-2-.92-3.11-1.4a69.7,69.7,0,0,0-27.37-5.54H908.32a70.26,70.26,0,0,0-70.05,64H566A911.46,911.46,0,0,1,635,1141H774.78a70.26,70.26,0,0,0,70.07,64h1193.7a70.25,70.25,0,0,0,70-64h203.3a911.08,911.08,0,0,1,68.95,239.28Z" transform="translate(3479.1 2663.98)"/><path class="cls-7" d="M2108.6,1128.35c0-.28-.06-.56-.08-.85-.18-1.75-.43-3.52-.74-5.25a68.53,68.53,0,0,0-1.57-6.82c-.34-1.21-.69-2.31-1.05-3.35-.54-1.58-1.13-3.14-1.81-4.75-.37-.87-.86-2-1.43-3.16-.23-.49-.49-1-.75-1.5s-.52-1-.81-1.55c-.18-.34-.39-.71-.6-1.08l-.07-.12a70,70,0,0,0-3.78-5.94c-.46-.65-1-1.33-1.48-2-.09-.13-.23-.32-.38-.5l-.13-.17c-.59-.74-1.12-1.39-1.67-2s-1.22-1.43-1.83-2.1l-.34-.35c-.58-.65-1.24-1.31-1.79-1.87s-1.22-1.21-1.94-1.86l-.25-.24c-.71-.65-1.42-1.27-2.21-1.93-.57-.49-1.22-1-1.89-1.54l-.27-.21-.59-.46c-.52-.4-1.21-.92-1.91-1.41-1.92-1.35-3.89-2.61-5.85-3.73l-1.3-.72c-.47-.27-1-.55-1.57-.82s-.94-.48-1.44-.72c-1.19-.58-2.35-1.09-3.12-1.42-1.67-.69-3.25-1.29-4.85-1.84-1-.35-2.1-.69-3.32-1a65.68,65.68,0,0,0-6.8-1.57c-1.72-.31-3.49-.56-5.27-.74a70.19,70.19,0,0,0-7.16-.36H844.85a70.27,70.27,0,0,0-70.07,64H640.71A918.54,918.54,0,0,1,969.08,746.79c149.75-98.82,324.15-151,504.36-151s354.6,52.23,504.35,151a918.47,918.47,0,0,1,328.37,381.56Z" transform="translate(3479.1 2663.98)"/><path class="cls-8" d="M2167.49,1884.21a70.26,70.26,0,0,0-70.06-64H1032.29a70.27,70.27,0,0,0-70.07,64H635a911,911,0,0,1-69-239.27H686.41a70.26,70.26,0,0,0,70.05,64H2134.62a70.26,70.26,0,0,0,70.05-64h176.18a911,911,0,0,1-68.95,239.27Z" transform="translate(3479.1 2663.98)"/><path class="cls-9" d="M1473.44,2429.52c-180.21,0-354.61-52.23-504.36-151.06A918.54,918.54,0,0,1,640.71,1896.9H962.22a70.38,70.38,0,0,0,70.07,64H2097.43a70.26,70.26,0,0,0,70.06-64h138.67a918.47,918.47,0,0,1-328.37,381.56C1828,2377.29,1653.64,2429.52,1473.44,2429.52Z" transform="translate(3479.1 2663.98)"/></svg>