<svg id="Capa_1" data-name="Capa 1" xmlns="http://www.w3.org/2000/svg" viewBox="0 0 3000 3000"><defs><style>.cls-1{fill:#1d1d1b;}.cls-2{fill:none;stroke:#a6e5ba;stroke-linecap:round;stroke-width:63.13px;}.cls-2,.cls-3{stroke-miterlimit:10;}.cls-3{fill:#91b9c5;stroke:#1d1d1b;stroke-width:0.34px;}</style></defs><title>myment-logo_circle</title><path class="cls-1" d="M306,808.86l-27.16-16.09c13.49-22.78,27.83-45.49,42.61-67.48l26.2,17.61C333.23,764.4,319.22,786.59,306,808.86Z"/><path class="cls-2" d="M2672.75,2216.64c-241.27,407.32-685.22,680.42-1193,680.42-765.22,0-1385.55-620.33-1385.55-1385.55S714.57,126,1479.79,126c222.1,0,432,52.26,618.06,145.15"/><polygon class="cls-3" points="2609.41 824.72 2928.04 1172.57 2825.38 1189.81 2609.41 824.72"/><polygon class="cls-3" points="2684.1 1242.94 2779.46 1212.46 2892.52 1327.91 2684.1 1242.94"/><polygon class="cls-3" points="2788.01 1209.73 2821.51 1199.02 2888.59 1312.43 2788.01 1209.73"/><polygon class="cls-3" points="2594.6 815.45 2817.31 1191.93 2675.44 1237.29 2594.6 815.45"/></svg>